<svg id="icon" height="512" viewBox="0 0 128 128" width="512" xmlns="http://www.w3.org/2000/svg"><path d="m105.157 48.9h-14.212a7.119 7.119 0 0 0 -6.4 4.024 6.807 6.807 0 0 0 -.747 3.141v45.778a7.037 7.037 0 0 0 1.342 4.161 7.117 7.117 0 0 0 5.807 3.005h14.212a7.178 7.178 0 0 0 7.166-7.166v-45.774a7.189 7.189 0 0 0 -7.168-7.169zm-.373 49.938a2.635 2.635 0 0 1 -2.632 2.632h-10.834v-45.027h10.834a2.646 2.646 0 0 1 2.632 2.632z" fill="#d9e2e9"/><path d="m101.642 52.368h-14.212a7.728 7.728 0 0 0 -2.887.56 6.408 6.408 0 0 0 -4.262 5.858v41.126a6.558 6.558 0 0 0 4.857 6.1 7.819 7.819 0 0 0 2.292.339h14.212c3.957 0 7.166-2.886 7.166-6.435v-41.13c0-3.532-3.208-6.418-7.166-6.418zm3.142 46.474a2.635 2.635 0 0 1 -2.632 2.632h-10.834v-1.9h-3.5v-40.448h3.5v-2.683h10.834a2.646 2.646 0 0 1 2.632 2.632z" fill="#c1cdd3"/><path d="m105.155 110.009h-14.208a8.167 8.167 0 0 1 -8.157-8.158v-45.783a8.166 8.166 0 0 1 8.157-8.157h14.208a8.167 8.167 0 0 1 8.159 8.157v45.783a8.168 8.168 0 0 1 -8.159 8.158zm-14.208-60.1a6.164 6.164 0 0 0 -6.157 6.157v45.783a6.164 6.164 0 0 0 6.157 6.158h14.208a6.165 6.165 0 0 0 6.159-6.158v-45.781a6.165 6.165 0 0 0 -6.159-6.157zm11.745 52.563h-12.367v-47.026h12.367a3.091 3.091 0 0 1 3.087 3.087v40.853a3.091 3.091 0 0 1 -3.087 3.088zm-10.367-2h10.367a1.089 1.089 0 0 0 1.087-1.088v-40.851a1.089 1.089 0 0 0 -1.087-1.087h-10.367z" fill="#2f3a5a"/><path d="m22.68 30.919v90.563a5.517 5.517 0 0 0 5.52 5.518h58.506a5.517 5.517 0 0 0 5.518-5.518v-90.563z" fill="#d9e2e9"/><path d="m92.218 30.922v90.554a5.507 5.507 0 0 1 -5.518 5.524h-11.937a5.507 5.507 0 0 0 5.518-5.519v-90.559z" fill="#c1cdd3"/><g opacity=".9"><path d="m22.68 34.253h69.544v80.605h-69.544z" fill="#ffc943"/></g><g opacity=".9"><path d="m80.281 34.25h11.937v80.604h-11.937z" fill="#f7b521"/></g><g opacity=".5"><path d="m37.794 48.91a1.97 1.97 0 0 0 -1.97 1.97v6.232a1.97 1.97 0 0 0 3.94 0v-6.232a1.97 1.97 0 0 0 -1.97-1.97z" fill="#fff"/></g><g opacity=".5"><path d="m37.794 63.342a1.97 1.97 0 0 0 -1.97 1.97v39.98a1.97 1.97 0 0 0 3.94 0v-39.98a1.97 1.97 0 0 0 -1.97-1.97z" fill="#fff"/></g><path d="m86.706 128h-58.506a6.525 6.525 0 0 1 -6.518-6.518v-91.563h71.542v91.563a6.525 6.525 0 0 1 -6.518 6.518zm-63.026-96.081v89.563a4.523 4.523 0 0 0 4.52 4.518h58.506a4.523 4.523 0 0 0 4.518-4.518v-89.563z" fill="#2f3a5a"/><path d="m90.3 16.186c-.423-5.772-4.716-10.37-10.107-10.478a9.594 9.594 0 0 0 -4.33.964 10.208 10.208 0 0 0 -8.619-5.372 9.945 9.945 0 0 0 -7.444 3.208 9.949 9.949 0 0 0 -7.306-3.508 10.287 10.287 0 0 0 -9.214 5.784 9.7 9.7 0 0 0 -5.55-1.922c-5.754-.114-10.521 4.912-10.647 11.228 0 .029.007.056.006.085-.256-.026-.5-.1-.762-.1-5.755-.115-10.522 4.912-10.647 11.225s4.437 11.528 10.191 11.643a9.6 9.6 0 0 0 4.9-1.29 9.76 9.76 0 0 0 6.254 2.509 5.672 5.672 0 0 0 4.944-3.425c.226 1.5 3.462 2.48 4.466 2.5 3.524.071 5.2-1.714 7.145-4.615a9.963 9.963 0 0 0 7.461 3.719 9.832 9.832 0 0 0 6.867-2.71 9.6 9.6 0 0 0 13.776.137 9.858 9.858 0 0 0 6.9 3.122c5.754.114 10.521-4.913 10.647-11.228.12-5.841-3.793-10.686-8.931-11.476z" fill="#e1e6e9"/><path d="m85.6 10.97a12.261 12.261 0 0 0 -.985-4.058 10.832 10.832 0 0 1 4.806 5.519 9.889 9.889 0 0 0 -3.821-1.461z" fill="#e1e6e9"/><path d="m99.231 27.662c-.119 6.316-4.89 11.338-10.646 11.224a9.818 9.818 0 0 1 -6.894-3.108 9.955 9.955 0 0 1 -7.03 2.836 9.853 9.853 0 0 1 -6.761-2.972 9.656 9.656 0 0 1 -14.314-1.018c-1.953 2.9-3.634 4.686-7.149 4.618-1-.017-4.245-1-4.465-2.5a5.663 5.663 0 0 1 -4.942 3.413 9.767 9.767 0 0 1 -6.265-2.5 9.71 9.71 0 0 1 -4.89 1.291 10.363 10.363 0 0 1 -9.153-6.419 9.526 9.526 0 0 0 4.449 1.206 9.714 9.714 0 0 0 4.907-1.291 9.671 9.671 0 0 0 6.249 2.5 5.613 5.613 0 0 0 4.941-3.413c.238 1.495 3.464 2.479 4.466 2.5 3.532.068 5.213-1.715 7.148-4.618a9.955 9.955 0 0 0 7.472 3.718 9.809 9.809 0 0 0 6.86-2.7 9.612 9.612 0 0 0 13.77.135 9.977 9.977 0 0 0 6.916 3.126c5.756.1 10.511-4.924 10.647-11.241a12.3 12.3 0 0 0 -1.019-5.162 11.481 11.481 0 0 1 5.703 10.375z" fill="#c1cdd3"/><path d="m37.1 41.166h-.093a10.62 10.62 0 0 1 -6.358-2.315 10.415 10.415 0 0 1 -4.8 1.1 10.9 10.9 0 0 1 -8.033-3.838 12.946 12.946 0 0 1 -3.138-8.825c.135-6.78 5.254-12.21 11.455-12.21a12.851 12.851 0 0 1 3.431-7.7 10.845 10.845 0 0 1 8.18-3.514 10.586 10.586 0 0 1 5.2 1.505 11.222 11.222 0 0 1 9.57-5.369 10.792 10.792 0 0 1 7.316 3.089 10.779 10.779 0 0 1 7.434-2.789 11.079 11.079 0 0 1 8.994 5.118 10.476 10.476 0 0 1 3.951-.706c5.614.113 10.229 4.631 11.007 10.636 5.309 1.219 9.137 6.382 9.019 12.341-.137 6.857-5.346 12.306-11.667 12.208a10.764 10.764 0 0 1 -6.909-2.766 10.518 10.518 0 0 1 -13.775-.159 10.577 10.577 0 0 1 -14.19-.75c-1.685 2.327-3.6 4.1-7.277 4.022a8.587 8.587 0 0 1 -4.385-1.67 6.584 6.584 0 0 1 -4.932 2.592zm-6.327-4.51a1 1 0 0 1 .659.247 8.739 8.739 0 0 0 5.615 2.262h.053a4.692 4.692 0 0 0 3.954-2.82 1 1 0 0 1 1.907.246c.1.663 2.5 1.629 3.5 1.648 2.92.072 4.369-1.3 6.294-4.172a1 1 0 0 1 1.6-.083 8.921 8.921 0 0 0 6.713 3.359 8.73 8.73 0 0 0 6.17-2.447 1 1 0 0 1 1.382.028 8.6 8.6 0 0 0 12.38.124 1 1 0 0 1 1.409.028 8.9 8.9 0 0 0 6.2 2.817c5.154.107 9.511-4.493 9.626-10.248.1-5.244-3.374-9.746-8.09-10.471a1 1 0 0 1 -.846-.915c-.392-5.349-4.318-9.455-9.13-9.551a8.478 8.478 0 0 0 -3.88.867 1 1 0 0 1 -1.3-.409 9.2 9.2 0 0 0 -7.765-4.866 8.862 8.862 0 0 0 -6.7 2.9.987.987 0 0 1 -.746.313 1 1 0 0 1 -.734-.342 8.915 8.915 0 0 0 -6.57-3.171 9.285 9.285 0 0 0 -8.309 5.25 1 1 0 0 1 -1.476.341 8.719 8.719 0 0 0 -4.979-1.729 8.968 8.968 0 0 0 -6.689 2.891 10.955 10.955 0 0 0 -2.938 7.357 1.067 1.067 0 0 1 -.326.774 1.023 1.023 0 0 1 -.768.286c-.127-.013-.252-.034-.376-.055a2.079 2.079 0 0 0 -.307-.04c-.057 0-.114 0-.171 0-5.117 0-9.342 4.559-9.455 10.25a10.948 10.948 0 0 0 2.643 7.468 8.921 8.921 0 0 0 6.568 3.155 8.412 8.412 0 0 0 4.394-1.163 1 1 0 0 1 .488-.129z" fill="#2f3a5a"/><g opacity=".25"><circle cx="66.833" cy="13.999" fill="#fff" r="4.327"/></g><g opacity=".25"><circle cx="38.516" cy="15.257" fill="#fff" r="4.327"/></g><g opacity=".25"><circle cx="56.387" cy="23.312" fill="#fff" r="4.327"/></g><g opacity=".25"><circle cx="84.611" cy="23.312" fill="#fff" r="4.327"/></g><g opacity=".25"><circle cx="28.858" cy="25.955" fill="#fff" r="4.327"/></g></svg>