<?xml version="1.0" encoding="iso-8859-1"?>
<!-- Generator: Adobe Illustrator 19.0.0, SVG Export Plug-In . SVG Version: 6.00 Build 0)  -->
<svg version="1.1" id="Layer_1" xmlns="http://www.w3.org/2000/svg" xmlns:xlink="http://www.w3.org/1999/xlink" x="0px" y="0px"
	 viewBox="0 0 512.002 512.002" style="enable-background:new 0 0 512.002 512.002;" xml:space="preserve">
<circle style="fill:#663A00;" cx="480.987" cy="244.016" r="23.857"/>
<circle style="fill:#9A4C00;" cx="480.987" cy="334.305" r="31.015"/>
<circle style="fill:#AA6100;" cx="472.367" cy="289.772" r="38.964"/>
<path style="fill:#9A4C00;" d="M472.37,250.801c11.189,0,21.27,4.723,28.376,12.277l-51.676,57.926
	c-9.51-7.105-15.666-18.452-15.666-31.235C433.404,268.247,450.85,250.801,472.37,250.801z"/>
<circle style="fill:#663A00;" cx="31.015" cy="244.016" r="23.857"/>
<circle style="fill:#9A4C00;" cx="31.015" cy="334.305" r="31.015"/>
<circle style="fill:#AA6100;" cx="39.63" cy="289.772" r="38.964"/>
<path style="fill:#9A4C00;" d="M39.63,250.801c-11.189,0-21.27,4.723-28.376,12.277l51.676,57.926
	c9.51-7.105,15.666-18.452,15.666-31.235C78.596,268.247,61.15,250.801,39.63,250.801z"/>
<path style="fill:#5EAC24;" d="M432.31,144.998c12.285,13.163,9.97,20.622,27.596,35.87c17.624,15.248,24.673,11.885,39.467,22.149
	c1.865,1.437,6.867,6.54-1.026,15.665l-63.417,71.085l-59.076-93.991l41.104-47.51C424.849,139.144,430.62,143.36,432.31,144.998z"
	/>
<path style="fill:#4E901E;" d="M432.31,144.998c-1.69-1.639-7.461-5.856-15.354,3.268l-41.104,47.51l33.221,52.854l33.221-89.644
	C439.829,154.662,437.25,150.292,432.31,144.998z"/>
<path style="fill:#6DC82A;" d="M325.902,100.408c16.122,8.019,16.57,15.816,38.423,23.914c21.853,8.099,27.275,2.476,44.728,6.901
	c2.251,0.691,8.725,3.717,4.533,15.03l-21.831,58.908l-100.915-37.399l21.831-58.908C316.861,97.541,323.744,99.466,325.902,100.408
	z"/>
<path style="fill:#5EAC24;" d="M79.69,144.998c-12.285,13.163-9.97,20.622-27.596,35.87c-17.624,15.248-24.673,11.885-39.467,22.149
	c-1.865,1.437-6.867,6.54,1.026,15.665l63.417,71.085l59.076-93.991l-41.103-47.509C87.151,139.144,81.38,143.36,79.69,144.998z"/>
<path style="fill:#4E901E;" d="M95.044,148.268c-7.894-9.124-13.664-4.908-15.354-3.268c-4.94,5.293-7.519,9.664-9.984,13.99
	l33.221,89.644l33.221-52.854L95.044,148.268z"/>
<path style="fill:#6DC82A;" d="M186.098,100.408c-16.122,8.019-16.57,15.816-38.423,23.914s-27.275,2.476-44.728,6.901
	c-2.251,0.691-8.725,3.717-4.533,15.03l21.831,58.908l100.915-37.399l-21.831-58.908C195.139,97.541,188.256,99.466,186.098,100.408
	z"/>
<g>
	<path style="fill:#5EAC24;" d="M341.158,186.411v-75.569c-4.156-3.465-8.208-6.929-15.257-10.434
		c-2.157-0.942-9.039-2.867-13.233,8.446l-21.831,58.908L341.158,186.411z"/>
	<path style="fill:#5EAC24;" d="M170.842,186.411l50.32-18.648l-21.831-58.908c-4.192-11.313-11.075-9.388-13.233-8.446
		c-7.049,3.506-11.101,6.969-15.257,10.434V186.411z"/>
</g>
<path style="fill:#91DC5A;" d="M300.338,95.538c-17.903,1.916-21.033,9.072-44.338,9.072s-26.436-7.155-44.338-9.072
	c-2.35-0.134-9.473,0.453-9.473,12.518v62.823h107.622v-62.823C309.811,95.991,302.688,95.404,300.338,95.538z"/>
<circle style="fill:#FFE477;" cx="313.814" cy="183.83" r="31.41"/>
<circle style="fill:#FF3F62;" cx="367.804" cy="205.156" r="31.41"/>
<circle style="fill:#FFE477;" cx="414.96" cy="236.576" r="31.41"/>
<circle style="fill:#FF3F62;" cx="256" cy="177.236" r="31.41"/>
<circle style="fill:#FFE477;" cx="198.186" cy="183.83" r="31.41"/>
<circle style="fill:#FF3F62;" cx="144.196" cy="205.156" r="31.41"/>
<circle style="fill:#FFE477;" cx="97.029" cy="236.576" r="31.41"/>
<path style="fill:#FFC477;" d="M489.71,380.366c-17.386-113.449-115.4-200.34-233.71-200.34S39.676,266.917,22.29,380.366
	c-0.015,0.2-6.452,36.113,32.249,36.113h402.923C496.164,416.477,489.726,380.565,489.71,380.366z"/>
<g>
	<path style="fill:#FFB655;" d="M22.29,380.364c-0.015,0.2-6.452,36.113,32.249,36.113h65.654
		c-38.702,0-32.264-35.912-32.249-36.113c15.749-102.767,97.659-183.74,200.884-198.078c-10.729-1.49-21.688-2.262-32.828-2.262
		C137.689,180.025,39.676,266.917,22.29,380.364z"/>
	<path style="fill:#FFB655;" d="M246.478,306.088c-2.059,0-4.075-0.836-5.538-2.288c-1.463-1.463-2.299-3.48-2.299-5.548
		c0-2.058,0.836-4.086,2.299-5.538c1.462-1.463,3.478-2.299,5.538-2.299c2.068,0,4.086,0.836,5.548,2.299
		c1.453,1.463,2.288,3.479,2.288,5.538c0,2.069-0.836,4.086-2.288,5.548C250.563,305.252,248.546,306.088,246.478,306.088z"/>
	<path style="fill:#FFB655;" d="M163.19,303.287c-2.059,0-4.075-0.836-5.538-2.288c-1.463-1.463-2.299-3.479-2.299-5.548
		c0-2.058,0.836-4.086,2.299-5.538c1.462-1.463,3.478-2.299,5.538-2.299c2.068,0,4.086,0.836,5.548,2.299
		c1.453,1.463,2.288,3.479,2.288,5.538c0,2.069-0.836,4.086-2.288,5.548C167.276,302.451,165.258,303.287,163.19,303.287z"/>
	<path style="fill:#FFB655;" d="M345.229,360.282c-2.06,0-4.075-0.836-5.538-2.288c-1.463-1.463-2.299-3.479-2.299-5.548
		c0-2.058,0.836-4.086,2.299-5.538c1.462-1.463,3.478-2.299,5.538-2.299c2.068,0,4.086,0.836,5.548,2.299
		c1.453,1.463,2.288,3.479,2.288,5.538c0,2.069-0.836,4.086-2.288,5.548C349.316,359.446,347.298,360.282,345.229,360.282z"/>
	<path style="fill:#FFB655;" d="M282.406,253.284c-2.06,0-4.075-0.836-5.538-2.288c-1.463-1.463-2.299-3.48-2.299-5.548
		c0-2.058,0.836-4.086,2.299-5.538c1.462-1.463,3.478-2.299,5.538-2.299c2.068,0,4.086,0.836,5.548,2.299
		c1.453,1.463,2.288,3.48,2.288,5.538c0,2.069-0.836,4.086-2.288,5.548C286.491,252.448,284.475,253.284,282.406,253.284z"/>
	<path style="fill:#FFB655;" d="M196.002,369.328c-2.059,0-4.075-0.836-5.538-2.288c-1.463-1.463-2.299-3.479-2.299-5.548
		c0-2.058,0.836-4.086,2.299-5.538c1.462-1.463,3.478-2.299,5.538-2.299c2.068,0,4.086,0.836,5.548,2.299
		c1.453,1.463,2.288,3.48,2.288,5.538c0,2.069-0.836,4.086-2.288,5.548C200.088,368.492,198.071,369.328,196.002,369.328z"/>
	<circle style="fill:#FFB655;" cx="330.7" cy="285.906" r="16.886"/>
	<circle style="fill:#FFB655;" cx="287.41" cy="352.445" r="16.886"/>
	<circle style="fill:#FFB655;" cx="207.705" cy="261.351" r="16.886"/>
	<path style="fill:#FFB655;" d="M435.484,334.543c-11.696-25.567-29.135-48.828-50.432-67.268
		c-3.273-2.833-3.628-7.782-0.795-11.055c2.835-3.272,7.783-3.626,11.054-0.794c22.983,19.9,41.802,45.004,54.426,72.597
		c1.8,3.936,0.131,8.726-3.866,10.386C439.254,341.16,436.802,337.422,435.484,334.543z"/>
	<path style="fill:#FFB655;" d="M450.809,385.214c-1.265-8.746-3.393-17.448-5.959-25.92c-1.255-4.142,1.086-8.517,5.229-9.772
		c4.143-1.258,8.516,1.086,9.772,5.228c2.772,9.151,4.938,18.572,6.439,28.001c0.679,4.274-2.234,8.29-6.509,8.97
		C459.363,391.788,451.918,392.882,450.809,385.214z"/>
</g>
<g>
</g>
<g>
</g>
<g>
</g>
<g>
</g>
<g>
</g>
<g>
</g>
<g>
</g>
<g>
</g>
<g>
</g>
<g>
</g>
<g>
</g>
<g>
</g>
<g>
</g>
<g>
</g>
<g>
</g>
</svg>
