<svg id="Layer_1" enable-background="new 0 0 512 512" height="512" viewBox="0 0 512 512" width="512" xmlns="http://www.w3.org/2000/svg"><g><g><g><path d="m243.268 213.779s-2 36.31-13.08 77.12c-16.77 61.8-54.33 133.91-137.2 105.78-1.24-.42-2.45-.85-3.65-1.3-77.84-28.87-64.85-105.83-41.24-163.89 16.3-40.09 37.66-71.17 37.66-71.17s39.63 9.18 80.06 22.9c17.67 5.99 34.68 12.58 48.24 18.1 17.47 7.12 29.21 12.46 29.21 12.46z" fill="#dcf8ff"/><path d="m243.268 213.779s-2 36.31-13.08 77.12c-16.77 61.8-54.33 133.91-137.2 105.78-1.24-.42-2.45-.85-3.65-1.3 106.27-14.86 122.31-154.88 124.72-194.06 17.47 7.12 29.21 12.46 29.21 12.46z" fill="#d2e1f9"/><path d="m230.188 290.899c-16.77 61.8-54.33 133.91-137.2 105.78-1.24-.42-2.45-.85-3.65-1.3-77.84-28.87-64.85-105.83-41.24-163.89 0 0 35.62-9.33 59.56 10.83 27.83 23.43 33.2 43.03 60.06 54.18 8.86 3.67 17.51 4.94 25.41 4.83 21.22-.27 37.06-10.43 37.06-10.43z" fill="#ff5f85"/><path d="m230.188 290.899c-16.77 61.8-54.33 133.91-137.2 105.78-1.24-.42-2.45-.85-3.65-1.3 55.73-7.79 86.65-50.01 103.79-94.05 21.22-.27 37.06-10.43 37.06-10.43z" fill="#b2527e"/></g><path d="m426.258 241.159c-2.33.95-4.75 1.85-7.25 2.7-74.92 25.43-112.8-31.06-131.77-87.8-15.88-47.46-18.51-95.1-18.51-95.1s37.02-16.83 77.45-30.56c16.89-5.73 33.63-10.66 47.4-14.47 19.22-5.32 32.66-8.43 32.66-8.43s28.04 40.8 44.38 89.21c18.26 54.06 21.93 117.63-44.36 144.45z" fill="#dcf8ff"/><path d="m426.258 241.159c56.56-85.25-7.89-190.41-32.68-225.23 19.22-5.32 32.66-8.43 32.66-8.43s28.04 40.8 44.38 89.21c18.26 54.06 21.93 117.63-44.36 144.45z" fill="#d2e1f9"/><path d="m426.258 241.159c-2.33.95-4.75 1.85-7.25 2.7-74.92 25.43-112.8-31.06-131.77-87.8l1.2.13s29.82 19.14 62.46 5.6c26.87-11.15 32.24-30.75 60.06-54.18 7.67-6.46 16.54-9.89 25.05-11.56 18.06-3.57 34.51.73 34.51.73l.1-.07c18.26 54.06 21.93 117.63-44.36 144.45z" fill="#ff5f85"/><path d="m426.258 241.159c31.44-47.39 25.49-100.92 9.75-145.11 18.06-3.57 34.51.73 34.51.73l.1-.07c18.26 54.06 21.93 117.63-44.36 144.45z" fill="#b2527e"/></g><g><path d="m246.37 206.952c-.373-.17-37.821-17.146-78.141-30.832-4.329-1.468-8.85-2.954-13.441-4.416-3.948-1.258-8.165.924-9.422 4.871s.924 8.165 4.871 9.422c4.501 1.433 8.933 2.889 13.172 4.327 31.24 10.603 60.741 23.225 71.974 28.158-.956 10.897-3.915 37.801-11.656 67.441-7.237 3.754-29.618 13.399-53.131 3.644-14.478-6.008-22.139-14.907-31.837-26.174-6.882-7.995-14.682-17.058-26.267-26.811-16.84-14.178-38.274-15.525-52.149-14.497 11.209-24.853 23.419-44.841 28.796-53.24 5.457 1.337 14.933 3.726 26.544 6.926 3.997 1.1 8.123-1.245 9.224-5.237 1.101-3.993-1.244-8.122-5.237-9.224-18.75-5.168-32.083-8.267-32.216-8.297-3-.694-6.126.517-7.873 3.059-3.161 4.599-77.131 113.512-51.969 189.265 8.529 25.673 27.325 44.434 55.92 55.849l-26.56 77.85c-22.429-8.095-46.15-18.663-46.411-18.78-3.783-1.689-8.218.007-9.906 3.79-1.689 3.782.007 8.217 3.789 9.906 1.21.54 29.905 13.325 54.775 21.766 24.869 8.441 55.426 15.768 56.715 16.076.586.14 1.172.207 1.748.207 3.392 0 6.467-2.316 7.289-5.759.962-4.028-1.523-8.075-5.553-9.037-.279-.067-25.522-6.12-48.241-13.347l26.56-77.85c10.491 2.952 20.608 4.431 30.29 4.43 7.864 0 15.442-.976 22.692-2.93 4-1.078 6.368-5.194 5.291-9.193-1.079-4-5.197-6.37-9.193-5.291-15.266 4.114-32.563 2.955-51.414-3.443-27.88-9.463-45.896-25.934-53.55-48.954-10.279-30.917-1.298-69.465 11.751-102.604 8.979-1.522 32.733-3.851 49.227 10.034 10.663 8.978 18.046 17.555 24.56 25.123 10.562 12.271 19.684 22.869 37.457 30.243 9.587 3.978 18.909 5.446 27.453 5.446 10.025 0 18.973-2.023 26.006-4.385-8.998 27.65-22.483 55.302-42.586 72.78-3.126 2.718-3.457 7.455-.739 10.581 1.483 1.706 3.567 2.579 5.663 2.579 1.745 0 3.498-.605 4.918-1.84 57.699-50.164 64.914-169.342 65.192-174.391.17-3.087-1.57-5.961-4.385-7.241z"/><path d="m511.346 311.226c-1.688-3.782-6.125-5.478-9.905-3.79-.262.117-23.984 10.684-46.414 18.78l-26.559-77.85c28.596-11.415 47.392-30.175 55.919-55.849 25.164-75.752-48.806-184.666-51.967-189.265-1.747-2.542-4.873-3.752-7.873-3.059-.4.093-40.457 9.422-80.776 23.107-3.923 1.331-6.023 5.59-4.692 9.513 1.332 3.923 5.592 6.021 9.513 4.691 31.253-10.607 62.362-18.556 74.271-21.478 6.638 10.368 23.688 38.398 36.415 71.438-10.577-.885-25.98-.471-40.358 6.264-3.751 1.757-5.367 6.223-3.61 9.974 1.275 2.722 3.978 4.32 6.797 4.32 1.065 0 2.147-.229 3.177-.71 14.97-7.013 32.149-5.279 39.592-4.027 9.151 28.498 13.726 59.09 5.272 84.52-7.653 23.021-25.67 39.492-53.55 48.954-27.901 9.469-52.271 7.37-72.428-6.244-19.738-13.329-33.834-36.114-43.866-60.746 7.035 2.364 15.988 4.388 26.019 4.388 8.542 0 17.868-1.469 27.453-5.446 17.772-7.374 26.894-17.972 37.457-30.243 2.712-3.15 5.516-6.408 8.609-9.772 2.804-3.049 2.605-7.793-.443-10.597-3.051-2.805-7.795-2.605-10.598.444-3.26 3.545-6.146 6.897-8.937 10.14-9.698 11.267-17.358 20.167-31.837 26.174-25.717 10.671-50.091-1.875-54.745-4.516-11.519-35.982-15.519-71.7-16.664-84.683 6.659-2.926 19.721-8.548 35.679-14.816 3.855-1.514 5.754-5.867 4.239-9.723-1.514-3.855-5.871-5.752-9.722-4.239-23.599 9.268-41.013 17.171-41.186 17.249-2.814 1.28-4.555 4.154-4.384 7.241.307 5.566 8.29 136.821 74.509 181.563 14.497 9.796 30.626 14.702 48.216 14.702 9.666 0 19.774-1.482 30.294-4.448l26.559 77.848c-22.719 7.227-47.962 13.28-48.241 13.346-4.029.962-6.515 5.008-5.553 9.037.822 3.443 3.897 5.759 7.289 5.759.576 0 1.162-.067 1.748-.207 1.288-.308 31.846-7.634 56.715-16.075 24.87-8.441 53.566-21.226 54.776-21.766 3.782-1.686 5.48-6.121 3.79-9.903z"/><path d="m200.624 96.575c.798 0 1.609-.128 2.406-.398 3.924-1.329 6.027-5.586 4.698-9.509-9.298-27.459-7.991-59.096-7.969-59.618.196-4.138-2.999-7.65-7.137-7.847-4.126-.211-7.65 2.999-7.846 7.137-.067 1.409-1.516 34.84 8.744 65.138 1.06 3.127 3.977 5.097 7.104 5.097z"/><path d="m73.708 79.259c.587.16 59.092 16.453 93.528 58.464 1.483 1.809 3.636 2.746 5.805 2.746 1.673 0 3.356-.557 4.751-1.7 3.203-2.625 3.671-7.351 1.046-10.555-37.542-45.8-98.625-62.735-101.206-63.433-4-1.081-8.111 1.28-9.194 5.277-1.085 3.995 1.275 8.114 5.27 9.201z"/><path d="m342.764 311.833c-.143-.103-14.309-10.54-23.211-28.304-1.855-3.703-6.359-5.201-10.064-3.346-3.704 1.856-5.201 6.362-3.346 10.065 10.615 21.185 27.142 33.243 27.841 33.746 1.324.954 2.854 1.413 4.369 1.413 2.323 0 4.614-1.079 6.082-3.106 2.425-3.35 1.673-8.036-1.671-10.468z"/><path d="m276.315 295.354c-3.891 1.421-5.892 5.728-4.471 9.619 10.101 27.644 7.88 55.829 7.856 56.111-.351 4.124 2.705 7.752 6.829 8.107.219.019.437.028.652.028 3.851 0 7.127-2.949 7.464-6.857.109-1.279 2.566-31.672-8.712-62.538-1.42-3.889-5.725-5.893-9.618-4.47z"/><circle cx="106.616" cy="347.01" r="7.5"/><circle cx="75.676" cy="290.899" r="7.5"/><circle cx="441.394" cy="146.81" r="7.5"/></g></g></svg>